<?xml version="1.0" encoding="UTF-8" standalone="no"?>
<!-- Created with Inkscape (http://www.inkscape.org/) -->

<svg
   width="128"
   height="128"
   viewBox="0 0 33.866666 33.866666"
   version="1.1"
   id="svg1"
   inkscape:version="1.3.2 (091e20ef0f, 2023-11-25, custom)"
   sodipodi:docname="artix.svg"
   xmlns:inkscape="http://www.inkscape.org/namespaces/inkscape"
   xmlns:sodipodi="http://sodipodi.sourceforge.net/DTD/sodipodi-0.dtd"
   xmlns="http://www.w3.org/2000/svg"
   xmlns:svg="http://www.w3.org/2000/svg">
  <sodipodi:namedview
     id="namedview1"
     pagecolor="#ffffff"
     bordercolor="#000000"
     borderopacity="0.25"
     inkscape:showpageshadow="2"
     inkscape:pageopacity="0.0"
     inkscape:pagecheckerboard="0"
     inkscape:deskcolor="#d1d1d1"
     inkscape:document-units="px"
     inkscape:zoom="5.7157127"
     inkscape:cx="83.279204"
     inkscape:cy="67.533136"
     inkscape:window-width="1920"
     inkscape:window-height="1006"
     inkscape:window-x="0"
     inkscape:window-y="0"
     inkscape:window-maximized="1"
     inkscape:current-layer="layer3" />
  <defs
     id="defs1" />
  <g
     inkscape:label="Background"
     inkscape:groupmode="layer"
     id="layer1"
     sodipodi:insensitive="true">
    <rect
       style="display:inline;fill:#000000;stroke-width:0.264583"
       id="rect1"
       width="33.866665"
       height="33.866665"
       x="0"
       y="0" />
  </g>
  <g
     inkscape:groupmode="layer"
     id="layer3"
     inkscape:label="Artix">
    <g
       id="g4"
       transform="matrix(1.0012515,0,0,1.0050251,-2.1570636,-4.0551713)"
       style="display:inline"
       inkscape:label="Logo">
      <path
         style="display:inline;fill:#ffffff;fill-opacity:1;stroke-width:0.264583"
         d="m 22.092706,26.855206 6.515364,-3.704166 3.671094,7.209895 z"
         id="path3" />
      <path
         style="display:inline;fill:#ffffff;fill-opacity:1;stroke-width:0.264583"
         d="m 19.016925,4.0348955 -4.630208,9.2604155 12.832291,7.011458 z"
         id="path4" />
      <path
         style="fill:#ffffff;stroke-width:0.264583"
         d="M 5.8539057,30.360935 27.020571,21.894269 12.997655,16.073436 Z"
         id="path2" />
    </g>
    <path
       id="path5"
       style="fill:#ffffff;stroke-width:0.00604378"
       inkscape:label="Checkbox"
       d="m 15.313794,29.104166 c -0.213547,0 -0.393987,0.07359 -0.541053,0.220658 -0.147065,0.147065 -0.220658,0.327506 -0.220658,0.541053 v 3.239078 c 0,0.213547 0.07359,0.393987 0.220658,0.541053 0.147066,0.147065 0.327506,0.220658 0.541053,0.220658 h 3.239078 c 0.213547,0 0.393987,-0.07359 0.541053,-0.220658 0.147064,-0.147066 0.220658,-0.327506 0.220658,-0.541053 v -3.239078 c 0,-0.213547 -0.07359,-0.393988 -0.220658,-0.541053 -0.147066,-0.147065 -0.327506,-0.220658 -0.541053,-0.220658 z m 0,0.761711 h 3.239078 v 3.239078 h -3.239078 z" />
  </g>
</svg>
