<?xml version="1.0" encoding="UTF-8" standalone="no"?>
<!-- Created with Inkscape (http://www.inkscape.org/) -->

<svg
   width="128"
   height="128"
   viewBox="0 0 33.866666 33.866666"
   version="1.1"
   id="svg1"
   inkscape:version="1.3.2 (091e20ef0f, 2023-11-25, custom)"
   sodipodi:docname="windows.svg"
   xmlns:inkscape="http://www.inkscape.org/namespaces/inkscape"
   xmlns:sodipodi="http://sodipodi.sourceforge.net/DTD/sodipodi-0.dtd"
   xmlns="http://www.w3.org/2000/svg"
   xmlns:svg="http://www.w3.org/2000/svg">
  <sodipodi:namedview
     id="namedview1"
     pagecolor="#ffffff"
     bordercolor="#000000"
     borderopacity="0.25"
     inkscape:showpageshadow="2"
     inkscape:pageopacity="0.0"
     inkscape:pagecheckerboard="0"
     inkscape:deskcolor="#d1d1d1"
     inkscape:document-units="px"
     inkscape:zoom="5.7157127"
     inkscape:cx="49.33768"
     inkscape:cy="63.509141"
     inkscape:window-width="1920"
     inkscape:window-height="1006"
     inkscape:window-x="0"
     inkscape:window-y="0"
     inkscape:window-maximized="1"
     inkscape:current-layer="layer1" />
  <defs
     id="defs1" />
  <g
     inkscape:groupmode="layer"
     id="layer2"
     inkscape:label="Background"
     sodipodi:insensitive="true">
    <rect
       style="display:inline;fill:#000000;stroke-width:0.264583"
       id="rect1"
       width="33.866665"
       height="33.866665"
       x="0"
       y="0" />
  </g>
  <g
     inkscape:label="Windows"
     inkscape:groupmode="layer"
     id="layer1">
    <g
       id="g8"
       style="display:inline;fill:#ffffff"
       transform="translate(-2.116665,-3.9687495)"
       inkscape:label="Logo">
      <rect
         style="fill:#ffffff;fill-opacity:1;stroke-width:0.510761"
         id="rect7"
         width="12.594166"
         height="12.594166"
         x="5.8208327"
         y="3.9687495" />
      <rect
         style="fill:#ffffff;fill-opacity:1;stroke-width:0.510761"
         id="rect7-7"
         width="12.594166"
         height="12.594166"
         x="19.684998"
         y="3.9687495" />
      <rect
         style="fill:#ffffff;fill-opacity:1;stroke-width:0.510761"
         id="rect7-2"
         width="12.594166"
         height="12.594166"
         x="5.8208327"
         y="17.832914" />
      <rect
         style="fill:#ffffff;fill-opacity:1;stroke-width:0.510761"
         id="rect7-7-2"
         width="12.594166"
         height="12.594166"
         x="19.684998"
         y="17.832914" />
    </g>
    <path
       id="path5"
       style="fill:#ffffff;stroke-width:0.00604378"
       inkscape:label="Checkbox"
       d="M 15.313794 29.104166 C 15.100247 29.104166 14.919807 29.177759 14.772741 29.324824 C 14.625676 29.471889 14.552083 29.65233 14.552083 29.865877 L 14.552083 33.104955 C 14.552083 33.318502 14.625676 33.498942 14.772741 33.646008 C 14.919807 33.793073 15.100247 33.866666 15.313794 33.866666 L 18.552872 33.866666 C 18.766419 33.866666 18.946859 33.793073 19.093925 33.646008 C 19.240989 33.498942 19.314583 33.318502 19.314583 33.104955 L 19.314583 29.865877 C 19.314583 29.65233 19.240989 29.471889 19.093925 29.324824 C 18.946859 29.177759 18.766419 29.104166 18.552872 29.104166 L 15.313794 29.104166 z M 15.313794 29.865877 L 18.552872 29.865877 L 18.552872 33.104955 L 15.313794 33.104955 L 15.313794 29.865877 z " />
  </g>
</svg>
